HIERARCHY
ROOT Hips
{
	OFFSET 0.000000 0.000000 0.000000 
	CHANNELS 6 Xposition Yposition Zposition Zrotation Yrotation Xrotation
	JOINT LeftUpLeg
	{
		OFFSET 1.363060 -1.794630 0.839290 
		CHANNELS 3 Zrotation Yrotation Xrotation
		JOINT LeftLeg
		{
			OFFSET 2.448110 -6.726130 0.000000 
			CHANNELS 3 Zrotation Yrotation Xrotation
			JOINT LeftFoot
			{
				OFFSET 2.562200 -7.039590 0.000000 
				CHANNELS 3 Zrotation Yrotation Xrotation
				JOINT LeftToeBase
				{
					OFFSET 0.157640 -0.433110 2.322550 
					CHANNELS 3 Zrotation Yrotation Xrotation
					End Site
					{
						OFFSET 0.000000 0.000000 0.000000 
					}
				}
			}
		}
	}
	JOINT RightUpLeg
	{
		OFFSET -1.305520 -1.794630 0.839290 
		CHANNELS 3 Zrotation Yrotation Xrotation
		JOINT RightLeg
		{
			OFFSET -2.542530 -6.985550 0.000000 
			CHANNELS 3 Zrotation Yrotation Xrotation
			JOINT RightFoot
			{
				OFFSET -2.568260 -7.056230 0.000000 
				CHANNELS 3 Zrotation Yrotation Xrotation
				JOINT RightToeBase
				{
					OFFSET -0.164730 -0.452590 2.363150 
					CHANNELS 3 Zrotation Yrotation Xrotation
					End Site
					{
						OFFSET 0.000000 0.000000 0.000000 
					}
				}
			}
		}
	}
	JOINT Spine
	{
		OFFSET 0.028270 2.035590 -0.193380 
		CHANNELS 3 Zrotation Yrotation Xrotation
		JOINT Spine1
		{
			OFFSET 0.056720 2.048850 -0.042750 
			CHANNELS 3 Zrotation Yrotation Xrotation
			JOINT Neck1
			{
				OFFSET -0.054170 1.746240 0.172020 
				CHANNELS 3 Zrotation Yrotation Xrotation
				JOINT Head
				{
					OFFSET 0.104070 1.761360 -0.123970 
					CHANNELS 3 Zrotation Yrotation Xrotation
					End Site
					{
						OFFSET 0.000000 0.000000 0.000000 
					}
				}
			}
			JOINT LeftArm
			{
				OFFSET 3.362410 1.200890 -0.311210 
				CHANNELS 3 Zrotation Yrotation Xrotation
				JOINT LeftForeArm
				{
					OFFSET 4.983000 -0.000000 -0.000000 
					CHANNELS 3 Zrotation Yrotation Xrotation
					JOINT LeftHand
					{
						OFFSET 3.483560 -0.000000 -0.000000 
						CHANNELS 3 Zrotation Yrotation Xrotation
						JOINT LeftHandIndex1
						{
							OFFSET 0.715260 -0.000000 -0.000000 
							CHANNELS 3 Zrotation Yrotation Xrotation
							End Site
							{
								OFFSET 0.000000 0.000000 0.000000 
							}
						}
					}
				}
			}
			JOINT RightArm
			{
				OFFSET -3.136600 1.374050 -0.404650 
				CHANNELS 3 Zrotation Yrotation Xrotation
				JOINT RightForeArm
				{
					OFFSET -5.241900 -0.000000 -0.000000 
					CHANNELS 3 Zrotation Yrotation Xrotation
					JOINT RightHand
					{
						OFFSET -3.444170 -0.000000 -0.000000 
						CHANNELS 3 Zrotation Yrotation Xrotation
						JOINT RightHandIndex1
						{
							OFFSET -0.622530 -0.000000 -0.000000 
							CHANNELS 3 Zrotation Yrotation Xrotation
							End Site
							{
								OFFSET 0.000000 0.000000 0.000000 
							}
						}
					}
				}
			}
		}
	}
}
MOTION
Frames: 12
Frame Time: 0.041667
-31.777435 18.026811 -3.070592 -149.392540 78.050199 -152.413806 -0.000808 -16.084940 -6.729614 -1.719659 7.177797 19.995808 3.228196 -2.721034 8.377583 0.352400 3.814000 10.553800 19.236176 5.631325 4.930664 3.278239 -1.048072 5.085433 6.271521 -22.403473 -3.723079 -0.004800 0.449300 -1.234700 2.347079 2.730992 10.131990 -0.984652 2.222610 2.378708 9.606808 -3.356956 -1.026756 0.660500 -1.877200 0.933600 -57.301049 10.345953 8.279910 20.649993 -31.385020 -8.104100 0.451697 -1.155596 5.481963 -7.125000 0.000000 0.000000 48.828255 -13.432892 2.758469 -29.521956 36.505303 -12.103114 0.882399 0.515745 -14.393871 7.125000 0.000000 0.000000 
-31.793113 18.027422 -3.062142 -148.399667 78.339737 -151.476977 0.026349 -16.003126 -6.633440 -1.717159 7.151449 19.924496 3.105851 -2.412966 8.345857 0.340600 3.750500 10.375800 19.274274 6.013758 4.862942 3.273649 -1.181421 5.399463 6.261548 -22.343459 -3.970101 -0.001400 0.245100 -0.673500 2.289625 2.698286 10.120468 -0.964618 2.186951 2.374089 9.727062 -3.149142 -0.940440 0.688600 -1.766600 0.963800 -56.793513 8.373154 12.399368 21.278494 -31.907625 -8.367948 0.475609 -1.156063 4.986391 -7.125000 0.000000 0.000000 47.704375 -10.693271 7.018104 -31.052545 37.703138 -13.000129 0.878951 0.521692 -14.367299 7.125000 0.000000 0.000000 
-31.808180 18.027523 -3.054608 -147.245613 78.657933 -150.401522 0.043850 -15.900551 -6.512612 -1.712648 7.127873 19.860889 2.980046 -2.101824 8.282138 0.331700 3.701400 10.238000 19.315208 6.423945 4.860790 3.273006 -1.288976 5.649189 6.252444 -22.296698 -4.205992 0.000000 0.013500 -0.037000 2.259634 2.651886 10.120413 -0.920050 2.145150 2.375555 9.847691 -2.914705 -0.856604 0.722200 -1.643400 0.989700 -56.416369 6.372472 16.499117 21.973278 -32.467054 -8.658736 0.501436 -1.158791 4.419657 -7.125000 0.000000 0.000000 46.562039 -7.864162 11.155129 -32.720261 38.918442 -13.989350 0.874993 0.528836 -14.402365 7.125000 0.000000 0.000000 
-31.822637 18.026913 -3.048194 -145.861459 78.999710 -149.118672 0.059028 -15.779341 -6.367547 -1.704895 7.108047 19.807543 2.848019 -1.780479 8.184884 0.324900 3.663500 10.131800 19.369361 6.863695 4.925714 3.276789 -1.371913 5.837628 6.242517 -22.257831 -4.432721 -0.001400 -0.245000 0.673200 2.257745 2.600906 10.105103 -0.859842 2.101142 2.344213 9.962016 -2.658598 -0.777547 0.759200 -1.510800 1.002500 -56.167513 4.359947 20.556132 22.735233 -33.062131 -8.979695 0.528174 -1.164848 3.767738 -7.125000 0.000000 0.000000 45.431792 -4.974325 15.131313 -34.484933 40.113602 -15.046578 0.871014 0.534975 -14.479870 7.125000 0.000000 0.000000 
-31.836584 18.025793 -3.043002 -144.240210 79.361176 -147.615903 0.070745 -15.648426 -6.200811 -1.694066 7.092900 19.766724 2.711972 -1.454968 8.048028 0.319500 3.633300 10.047300 19.432324 7.331325 5.048438 3.284806 -1.431796 5.967579 6.231636 -22.224877 -4.645020 -0.006300 -0.514000 1.412400 2.273824 2.552564 10.144754 -0.793170 2.062809 2.397229 10.052469 -2.382939 -0.756393 0.789600 -1.372500 0.995100 -56.026767 2.213884 24.473037 23.547290 -33.664324 -9.320851 0.555630 -1.173621 3.002896 -7.125000 0.000000 0.000000 44.343246 -1.947382 18.836163 -36.291117 41.243629 -16.135671 0.868891 0.540285 -14.562473 7.125000 0.000000 0.000000 
-31.850328 18.024062 -3.038828 -142.368276 79.733071 -145.873844 0.082173 -15.507604 -6.021610 -1.680094 7.082242 19.737553 2.570986 -1.122638 7.878524 0.314800 3.606800 9.972900 19.505955 7.830411 5.218130 3.296536 -1.473979 6.051583 6.222572 -22.204644 -4.845333 -0.014800 -0.784800 2.156700 2.298966 2.518679 10.194256 -0.736624 2.034204 2.451812 10.126293 -2.108463 -0.736650 0.812300 -1.235500 0.983400 -55.983963 -0.008766 28.284982 24.426887 -34.292394 -9.695009 0.579458 -1.187783 2.132164 -7.125000 0.000000 0.000000 43.338223 1.142291 22.271559 -38.101075 42.290988 -17.232647 0.870269 0.544436 -14.637987 7.125000 0.000000 0.000000 
-31.863970 18.021619 -3.035570 -140.231679 80.104733 -143.883347 0.094633 -15.358959 -5.828691 -1.663338 7.075665 19.720139 2.428536 -0.791939 7.683939 0.310200 3.580900 9.900400 19.591852 8.332708 5.422278 3.309847 -1.504139 6.105978 6.210276 -22.179901 -5.015489 -0.026100 -1.042400 2.865400 2.317580 2.504842 10.246172 -0.709360 2.018891 2.493533 10.176418 -1.843789 -0.713326 0.819300 -1.103700 0.965900 -56.018062 -2.282846 31.976342 25.386351 -34.957935 -10.116111 0.600387 -1.204629 1.175981 -7.125000 0.000000 0.000000 42.465646 4.258315 25.433549 -39.884258 43.244079 -18.314093 0.874443 0.545671 -14.710994 7.125000 0.000000 0.000000 
-31.877613 18.018666 -3.033127 -137.901386 80.467474 -141.706854 0.102186 -15.205754 -5.631373 -1.644985 7.072771 19.713195 2.284784 -0.463081 7.472126 0.304000 3.544900 9.799700 19.681027 8.838480 5.648628 3.324431 -1.525703 6.140165 6.194621 -22.147671 -5.184055 -0.040000 -1.290300 3.547900 2.318369 2.516232 10.297127 -0.716651 2.018959 2.521595 10.210676 -1.597666 -0.684578 0.809300 -0.981200 0.943500 -56.118700 -4.589376 35.525294 26.434917 -35.669008 -10.597492 0.620861 -1.224097 0.185296 -7.125000 0.000000 0.000000 41.756997 7.349066 28.324813 -41.638833 44.110763 -19.378976 0.880025 0.541683 -14.784647 7.125000 0.000000 0.000000 
-31.890949 18.015103 -3.031193 -135.382313 80.812097 -139.349562 0.109095 -15.056463 -5.427957 -1.624979 7.073153 19.715880 2.139342 -0.134671 7.251157 0.297400 3.506600 9.692400 19.777362 9.339064 5.891021 3.338830 -1.543132 6.164314 6.179606 -22.119227 -5.326439 -0.054900 -1.511700 4.157800 2.288864 2.551168 10.343710 -0.774245 2.034410 2.528351 10.248550 -1.375338 -0.642959 0.785800 -0.869800 0.919700 -56.275883 -6.893350 38.888038 27.556254 -36.412315 -11.136636 0.643874 -1.240398 -0.745990 -7.125000 0.000000 0.000000 41.239340 10.375571 30.961408 -43.366268 44.899479 -20.429411 0.885921 0.531371 -14.834748 7.125000 0.000000 0.000000 
-31.903981 18.011031 -3.029666 -132.719246 81.127625 -136.856577 0.116603 -14.915846 -5.219742 -1.604255 7.076157 19.726280 1.997896 0.180685 7.026966 0.290100 3.463600 9.572100 19.881996 9.822292 6.142505 3.352270 -1.559632 6.187799 6.163838 -22.089604 -5.452849 -0.070300 -1.710100 4.705100 2.226101 2.604271 10.385272 -0.882465 2.061947 2.510561 10.297950 -1.180288 -0.580183 0.750200 -0.770300 0.898500 -56.493351 -9.162328 42.050041 28.767466 -37.201671 -11.751051 0.671369 -1.251574 -1.592683 -7.125000 0.000000 0.000000 40.923652 13.303787 33.369080 -45.090812 45.628297 -21.485679 0.890622 0.513668 -14.886662 7.125000 0.000000 0.000000 
-31.916197 18.006450 -3.028342 -129.953069 81.412846 -134.267937 0.122416 -14.780181 -5.010491 -1.582941 7.081440 19.744146 1.859379 0.486348 6.806690 0.282400 3.417600 9.443700 19.992095 10.284648 6.400430 3.364588 -1.575011 6.210158 6.148885 -22.062906 -5.559617 -0.085200 -1.882500 5.181100 2.132078 2.672212 10.424576 -1.035889 2.099625 2.473286 10.378171 -1.017390 -0.492319 0.710600 -0.684500 0.884700 -56.779082 -11.377886 44.993499 30.055281 -38.023157 -12.436614 0.699206 -1.263015 -2.316626 -7.125000 0.000000 0.000000 40.799464 16.103816 35.578993 -46.852262 46.319091 -22.584011 0.893957 0.489959 -14.959607 7.125000 0.000000 0.000000 
-31.927294 18.001665 -3.027019 -127.145590 81.663241 -131.638940 0.128107 -14.659110 -4.801895 -1.561464 7.088904 19.768281 1.721348 0.788483 6.595669 0.274400 3.369600 9.309600 20.106082 10.719160 6.659055 3.376014 -1.587583 6.227018 6.135005 -22.039936 -5.648791 -0.099600 -2.035000 5.602300 2.012410 2.747275 10.458485 -1.223854 2.142415 2.415425 10.500559 -0.885716 -0.382279 0.673700 -0.611700 0.878400 -57.143006 -13.513946 47.719740 31.425623 -38.879111 -13.202951 0.725203 -1.277690 -2.963133 -7.125000 0.000000 0.000000 40.851605 18.750559 37.615868 -48.686935 46.986385 -23.757080 0.893962 0.461599 -15.027147 7.125000 0.000000 0.000000 
